/* XPM */
static char *de6357e251ab45cfc9ba749e769ec584eiT7DLUFAb74alPP[] = {
/* columns rows colors chars-per-pixel */
"64 64 2 1 ",
"  c #FF7F27",
". c white",
/* pixels */
"                                                                ",
"                                                                ",
"                                                                ",
"                                                                ",
"                                                                ",
"                                                                ",
"       .....                         ......                     ",
"      .......                      ..........                   ",
"     .........                   ..............                 ",
"    ...........                  ...............                ",
"   .............                ................                ",
"   .............               ..................               ",
"   .............               ..................               ",
"   .............               ..................               ",
"   .............               ..................               ",
"    ...........                ..................               ",
"     .........                  ................                ",
"      .......                   ................                ",
"       .....                     ..............                 ",
"                                   ..........                   ",
"                                     ......                     ",
"                                                                ",
"                                                                ",
"                                                                ",
"                                                                ",
"                                                                ",
"                                                                ",
"                                                                ",
"                                                                ",
"                                                                ",
"                                                                ",
"                                                                ",
"                                                                ",
"                                                                ",
"                                                                ",
"                                                                ",
"                                                                ",
"                                                                ",
"                                                                ",
"                                                                ",
"                                                                ",
"                                                                ",
"                                                                ",
"      ..........................................                ",
"     ............................................               ",
"    .............................................               ",
"    .............................................               ",
"    ............................................                ",
"     ..........................................                 ",
"      ........................................                  ",
"       .....................................                    ",
"        ...................................                     ",
"         .................................                      ",
"          ...............................                       ",
"           ............................                         ",
"            ..........................                          ",
"             .......................                            ",
"               ....................                             ",
"                .................                               ",
"                 ...............                                ",
"                   ...........                                  ",
"                      .....                                     ",
"                                                                ",
"                                                                "
};
