/* XPM */
static char *_0ded153545441728ec3150989f3315aKNk92kazQ4kI6pn0[] = {
/* columns rows colors chars-per-pixel */
"60 60 2 1 ",
"  c #FF7F27",
". c #00A2E8",
/* pixels */
"............................................................",
"............................................................",
"............................................................",
"............................................................",
"............................................................",
"............................................................",
"............................................................",
"............................................................",
"............................................................",
"............................................................",
"............................................................",
"............................................................",
"............................................................",
"............................................................",
"........................        ............................",
".....................              .........................",
"...................                  .......................",
"..................                    ......................",
".................                      .....................",
"................                        ....................",
"...............                          ...................",
"..............                            ..................",
"..............                            ..................",
".............                              .................",
".............                              .................",
".............                               ................",
"............                                ................",
"............                                ................",
"............                                ................",
"............                                ................",
"............                                ................",
"............                                ................",
".............                               ................",
".............                              .................",
".............                              .................",
"..............                            ..................",
"..............                            ..................",
"...............                          ...................",
"................                        ....................",
".................                       ....................",
"..................                    ......................",
"...................                  .......................",
".....................              .........................",
"........................        ............................",
"............................................................",
"............................................................",
"............................................................",
"............................................................",
"............................................................",
"............................................................",
"............................................................",
"............................................................",
"............................................................",
"............................................................",
"............................................................",
"............................................................",
"............................................................",
"............................................................",
"............................................................",
"............................................................"
};
